<svg width="205" height="24" viewBox="0 0 205 24" fill="none" xmlns="http://www.w3.org/2000/svg">
<path d="M15.3078 22.8066H11.2461V16.3449C11.2461 15.8526 11.1128 15.4526 10.8461 15.1449C10.5999 14.8372 10.1794 14.6833 9.58453 14.6833H4.90748V22.8066H0.845825V1.26758H9.09221C10.1999 1.26758 11.1743 1.42143 12.0154 1.72913C12.8564 2.03684 13.5539 2.46762 14.1077 3.02148C14.6821 3.55483 15.1129 4.18048 15.4001 4.89845C15.7078 5.61642 15.8616 6.38567 15.8616 7.20621V7.94469C15.8616 8.82677 15.6257 9.65756 15.1539 10.4371C14.6821 11.1961 13.9539 11.7807 12.9692 12.191V12.7448C13.6872 12.8269 14.2513 13.1038 14.6616 13.5756C15.0924 14.0474 15.3078 14.6423 15.3078 15.3603V22.8066ZM4.90748 10.8063H8.78451C9.76915 10.8063 10.5179 10.5807 11.0307 10.1294C11.5436 9.65756 11.8 9.00113 11.8 8.16008V7.79084C11.8 7.07287 11.5436 6.45747 11.0307 5.94464C10.5179 5.41129 9.76915 5.14461 8.78451 5.14461H4.90748V10.8063ZM30.5176 18.1911H23.1943L22.1481 22.8066H17.9018L23.0404 1.26758H30.6714L35.81 22.8066H31.5637L30.5176 18.1911ZM24.0558 14.3141H29.6252L27.1328 3.29841H26.579L24.0558 14.3141ZM45.7581 19.545C46.5376 19.545 47.1735 19.4322 47.6659 19.2065C48.1787 18.9604 48.5685 18.6424 48.8351 18.2527C49.1223 17.8424 49.3172 17.3808 49.4198 16.868C49.5223 16.3347 49.5736 15.7911 49.5736 15.2372V14.6833H53.6353V15.2372C53.6353 17.8014 52.9583 19.7809 51.6044 21.1758C50.2711 22.5502 48.3223 23.2374 45.7581 23.2374C43.2965 23.2374 41.3477 22.4887 39.9118 20.9912C38.4759 19.4937 37.7579 17.3091 37.7579 14.4372V9.63705C37.7579 8.26265 37.9425 7.03184 38.3118 5.94464C38.681 4.83691 39.2144 3.91381 39.9118 3.17533C40.6093 2.41633 41.4503 1.84196 42.435 1.4522C43.4196 1.04194 44.5273 0.836802 45.7581 0.836802C47.03 0.836802 48.1582 1.02142 49.1428 1.39066C50.1275 1.7599 50.948 2.29325 51.6044 2.99071C52.2814 3.68816 52.784 4.52921 53.1122 5.51385C53.4609 6.4985 53.6353 7.60622 53.6353 8.83702V9.39088H49.5736V8.83702C49.5736 8.32419 49.5121 7.81135 49.389 7.29852C49.2659 6.78568 49.0608 6.32413 48.7736 5.91387C48.4864 5.5036 48.0966 5.17538 47.6043 4.92922C47.112 4.66255 46.4966 4.52921 45.7581 4.52921C45.0812 4.52921 44.4965 4.66255 44.0042 4.92922C43.5119 5.17538 43.1016 5.52411 42.7734 5.9754C42.4452 6.40619 42.199 6.91902 42.0349 7.51391C41.8913 8.08829 41.8196 8.69343 41.8196 9.32934V14.7449C41.8196 15.4423 41.8913 16.0885 42.0349 16.6834C42.1785 17.2578 42.4042 17.7603 42.7119 18.1911C43.0196 18.6219 43.4196 18.9604 43.9119 19.2065C44.4248 19.4322 45.0402 19.545 45.7581 19.545ZM57.6447 1.26758H71.2451V5.14461H61.7064V10.0678H70.8759V13.9449H61.7064V18.9296H71.6144V22.8066H57.6447V1.26758ZM102.28 19.545C103.06 19.545 103.696 19.4322 104.188 19.2065C104.701 18.9604 105.09 18.6424 105.357 18.2527C105.644 17.8424 105.839 17.3808 105.942 16.868C106.044 16.3347 106.096 15.7911 106.096 15.2372V14.6833H110.157V15.2372C110.157 17.8014 109.48 19.7809 108.126 21.1758C106.793 22.5502 104.844 23.2374 102.28 23.2374C99.8185 23.2374 97.8697 22.4887 96.4338 20.9912C94.9979 19.4937 94.2799 17.3091 94.2799 14.4372V9.63705C94.2799 8.26265 94.4645 7.03184 94.8338 5.94464C95.203 4.83691 95.7363 3.91381 96.4338 3.17533C97.1313 2.41633 97.9723 1.84196 98.9569 1.4522C99.9416 1.04194 101.049 0.836802 102.28 0.836802C103.552 0.836802 104.68 1.02142 105.665 1.39066C106.649 1.7599 107.47 2.29325 108.126 2.99071C108.803 3.68816 109.306 4.52921 109.634 5.51385C109.983 6.4985 110.157 7.60622 110.157 8.83702V9.39088H106.096V8.83702C106.096 8.32419 106.034 7.81135 105.911 7.29852C105.788 6.78568 105.583 6.32413 105.296 5.91387C105.008 5.5036 104.619 5.17538 104.126 4.92922C103.634 4.66255 103.019 4.52921 102.28 4.52921C101.603 4.52921 101.019 4.66255 100.526 4.92922C100.034 5.17538 99.6236 5.52411 99.2954 5.9754C98.9672 6.40619 98.721 6.91902 98.5569 7.51391C98.4133 8.08829 98.3415 8.69343 98.3415 9.32934V14.7449C98.3415 15.4423 98.4133 16.0885 98.5569 16.6834C98.7005 17.2578 98.9262 17.7603 99.2339 18.1911C99.5416 18.6219 99.9416 18.9604 100.434 19.2065C100.947 19.4322 101.562 19.545 102.28 19.545ZM118.475 12.0371C118.475 11.3397 118.731 10.7345 119.244 10.2217C119.757 9.70884 120.362 9.45243 121.059 9.45243C121.757 9.45243 122.362 9.70884 122.875 10.2217C123.388 10.7345 123.644 11.3397 123.644 12.0371C123.644 12.7346 123.388 13.3397 122.875 13.8525C122.362 14.3654 121.757 14.6218 121.059 14.6218C120.362 14.6218 119.757 14.3654 119.244 13.8525C118.731 13.3397 118.475 12.7346 118.475 12.0371ZM113.121 9.63705C113.121 6.84722 113.818 4.68306 115.213 3.14456C116.628 1.60605 118.577 0.836802 121.059 0.836802C123.541 0.836802 125.48 1.60605 126.875 3.14456C128.29 4.68306 128.998 6.84722 128.998 9.63705V14.4372C128.998 17.3091 128.29 19.4937 126.875 20.9912C125.48 22.4887 123.541 23.2374 121.059 23.2374C118.577 23.2374 116.628 22.4887 115.213 20.9912C113.818 19.4937 113.121 17.3091 113.121 14.4372V9.63705ZM121.059 19.545C121.798 19.545 122.413 19.4322 122.905 19.2065C123.398 18.9604 123.798 18.6219 124.105 18.1911C124.413 17.7603 124.629 17.2475 124.752 16.6526C124.875 16.0577 124.936 15.4013 124.936 14.6833V9.39088C124.936 8.71394 124.864 8.07803 124.721 7.48314C124.577 6.88825 124.352 6.37542 124.044 5.94464C123.736 5.51385 123.336 5.17538 122.844 4.92922C122.352 4.66255 121.757 4.52921 121.059 4.52921C120.362 4.52921 119.767 4.66255 119.275 4.92922C118.782 5.17538 118.382 5.51385 118.075 5.94464C117.767 6.37542 117.541 6.88825 117.398 7.48314C117.254 8.07803 117.182 8.71394 117.182 9.39088V14.6833C117.182 15.4013 117.244 16.0577 117.367 16.6526C117.49 17.2475 117.705 17.7603 118.013 18.1911C118.321 18.6219 118.721 18.9604 119.213 19.2065C119.705 19.4322 120.321 19.545 121.059 19.545ZM147.654 1.26758V15.3603C147.654 17.8219 146.998 19.7501 145.685 21.1451C144.392 22.54 142.464 23.2374 139.9 23.2374C137.336 23.2374 135.397 22.54 134.084 21.1451C132.792 19.7501 132.146 17.8219 132.146 15.3603V1.26758H136.207V15.3603C136.207 16.6321 136.505 17.627 137.1 18.345C137.695 19.0629 138.628 19.4219 139.9 19.4219C141.172 19.4219 142.105 19.0629 142.7 18.345C143.295 17.627 143.592 16.6321 143.592 15.3603V1.26758H147.654ZM161.664 20.7758H162.218V1.26758H166.279V22.8066H158.341L155.817 3.29841H155.264V22.8066H151.202V1.26758H159.141L161.664 20.7758ZM169.827 1.26758H185.335V5.14461H179.612V22.8066H175.55V5.14461H169.827V1.26758ZM200.114 7.85238C200.114 6.99082 199.776 6.24208 199.099 5.60617C198.442 4.97025 197.509 4.65229 196.299 4.65229C195.273 4.65229 194.463 4.86768 193.868 5.29846C193.273 5.70873 192.976 6.27285 192.976 6.99082C192.976 7.36006 193.047 7.69853 193.191 8.00623C193.335 8.29342 193.581 8.56009 193.93 8.80625C194.299 9.0319 194.771 9.23703 195.345 9.42165C195.94 9.60628 196.689 9.78064 197.591 9.94475C199.848 10.355 201.571 11.0422 202.761 12.0063C203.95 12.9705 204.545 14.3962 204.545 16.2834V16.6526C204.545 17.6578 204.361 18.5706 203.991 19.3912C203.643 20.1912 203.13 20.8784 202.453 21.4528C201.776 22.0271 200.955 22.4682 199.991 22.7759C199.027 23.0836 197.94 23.2374 196.73 23.2374C195.314 23.2374 194.063 23.0425 192.976 22.6528C191.909 22.2425 191.017 21.6887 190.299 20.9912C189.581 20.2732 189.037 19.4424 188.668 18.4988C188.299 17.5347 188.114 16.4885 188.114 15.3603V14.4372H192.176V15.1757C192.176 16.468 192.545 17.5039 193.283 18.2834C194.042 19.0424 195.212 19.4219 196.791 19.4219C198.022 19.4219 198.935 19.1553 199.53 18.6219C200.125 18.0886 200.422 17.4526 200.422 16.7142C200.422 16.3654 200.36 16.0372 200.237 15.7295C200.114 15.4013 199.899 15.1141 199.591 14.868C199.284 14.6013 198.863 14.3654 198.33 14.1602C197.796 13.9551 197.119 13.7808 196.299 13.6372C195.212 13.4525 194.217 13.2166 193.314 12.9294C192.412 12.6217 191.622 12.2217 190.945 11.7294C190.288 11.2371 189.776 10.6217 189.406 9.88321C189.037 9.14472 188.852 8.24214 188.852 7.17544V6.99082C188.852 6.10874 189.027 5.29846 189.376 4.55998C189.745 3.80099 190.247 3.14456 190.883 2.5907C191.54 2.03684 192.319 1.60605 193.222 1.29835C194.145 0.990652 195.171 0.836802 196.299 0.836802C197.571 0.836802 198.699 1.02142 199.684 1.39066C200.668 1.73939 201.489 2.22146 202.145 2.83686C202.822 3.45226 203.325 4.15997 203.653 4.95999C204.002 5.76002 204.176 6.60106 204.176 7.48314V8.59086H200.114V7.85238Z" fill="#070024"/>
</svg>
